<svg xmlns="http://www.w3.org/2000/svg" version="1.1" xmlns:xlink="http://www.w3.org/1999/xlink" xmlns:svgjs="http://svgjs.dev/svgjs" width="2000" height="1999" viewBox="0 0 2000 1999"><g transform="matrix(1,0,0,1,-0.431486880466764,-0.4312711370263287)"><svg viewBox="0 0 343 343" data-background-color="#ffffff" preserveAspectRatio="xMidYMid meet" height="1999" width="2000" xmlns="http://www.w3.org/2000/svg" xmlns:xlink="http://www.w3.org/1999/xlink"><g id="tight-bounds" transform="matrix(1,0,0,1,0.0740000000000407,0.07400000000001228)"><svg viewBox="0 0 342.85155851775386 342.85155851775386" height="342.85155851775386" width="342.85155851775386"><g><svg></svg></g><g><svg viewBox="0 0 342.85155851775386 342.85155851775386" height="342.85155851775386" width="342.85155851775386"><g><path d="M0 171.426c0-94.676 76.75-171.426 171.426-171.426 94.676 0 171.426 76.75 171.426 171.426 0 94.676-76.75 171.426-171.426 171.426-94.676 0-171.426-76.75-171.426-171.426zM171.426 339.265c92.695 0 167.839-75.144 167.839-167.839 0-92.695-75.144-167.839-167.839-167.839-92.695 0-167.839 75.144-167.839 167.839 0 92.695 75.144 167.839 167.839 167.839z" data-fill-palette-color="tertiary" fill="#ffffff" stroke="transparent"></path><ellipse rx="164.56874808852186" ry="164.56874808852186" cx="171.42577925887693" cy="171.42577925887693" fill="#ffffff" stroke="transparent" stroke-width="0" fill-opacity="1" data-fill-palette-color="tertiary"></ellipse></g><g transform="matrix(1,0,0,1,64.84655864529837,78.9077343833838)"><svg viewBox="0 0 213.1584412271571 185.03608975098626" height="185.03608975098626" width="213.1584412271571"><g><svg viewBox="0 0 213.1584412271571 185.03608975098626" height="185.03608975098626" width="213.1584412271571"><g><svg viewBox="0 0 213.1584412271571 185.03608975098626" height="185.03608975098626" width="213.1584412271571"><g transform="matrix(1,0,0,1,0,111.29679327147218)"><svg viewBox="0 0 213.1584412271571 73.7392964795141" height="73.7392964795141" width="213.1584412271571"><g id="textblocktransform"><svg viewBox="0 0 213.1584412271571 73.7392964795141" height="73.7392964795141" width="213.1584412271571" id="textblock"><g><svg viewBox="0 0 213.1584412271571 39.771452993034856" height="39.771452993034856" width="213.1584412271571"><g transform="matrix(1,0,0,1,0,0)"><svg width="213.1584412271571" viewBox="3.3 -25.05 180.33999999999997 33.650000000000006" height="39.771452993034856" data-palette-color="#ffffff"><path d="M15.33 0.53L15.33 0.53Q13.08 0.53 11.43-0.23 9.78-0.98 8.75-2.38 7.73-3.78 7.38-5.63L7.38-5.63 6.05-5.63 7.23-9.43Q7.33-7.23 8.21-5.76 9.1-4.3 10.63-3.58 12.15-2.85 14.08-2.85L14.08-2.85Q17.15-2.85 18.79-4.65 20.43-6.45 20.43-9.93L20.43-9.93 20.43-14.6Q20.43-18.05 18.8-19.85 17.18-21.65 14.08-21.65L14.08-21.65Q12.23-21.65 10.8-20.93 9.38-20.2 8.44-18.95 7.5-17.7 7.15-16.1L7.15-16.1 6.15-18.93 7.33-18.93Q7.73-20.6 8.69-21.96 9.65-23.33 11.34-24.14 13.03-24.95 15.5-24.95L15.5-24.95Q19.9-24.95 22.2-22.21 24.5-19.48 24.5-14.28L24.5-14.28 24.5-10.23Q24.5-4.98 22.19-2.23 19.88 0.53 15.33 0.53ZM7.33 8.6L3.3 8.6 3.3-24.4 7.35-24.4 7.18-18.53 7.23-17.28 7.23-7 7.2-6.18 7.33 0.68 7.33 8.6ZM39.85 0.63L39.85 0.63Q34.6 0.63 31.89-2.21 29.17-5.05 29.17-10.38L29.17-10.38 29.17-14.1Q29.17-19.4 31.9-22.23 34.62-25.05 39.85-25.05L39.85-25.05Q45.1-25.05 47.81-22.23 50.52-19.4 50.52-14.1L50.52-14.1 50.52-10.38Q50.52-5.05 47.81-2.21 45.1 0.63 39.85 0.63ZM39.85-2.68L39.85-2.68Q43.1-2.68 44.78-4.6 46.47-6.53 46.47-10.15L46.47-10.15 46.47-14.33Q46.47-17.93 44.78-19.84 43.1-21.75 39.85-21.75L39.85-21.75Q36.62-21.75 34.92-19.84 33.22-17.93 33.22-14.33L33.22-14.33 33.22-10.15Q33.22-6.53 34.92-4.6 36.62-2.68 39.85-2.68ZM65.77 0L59.54 0 53.54-24.4 57.72-24.4 62.52-2.95 62.99-2.95 68-23.75 73.72-23.75 78.72-2.95 79.17-2.95 84.02-24.4 88.17-24.4 82.17 0 75.97 0 71.84-17.35 71.05-20.83 70.67-20.83 69.89-17.35 65.77 0ZM102.42 0.55L102.42 0.55Q96.84 0.55 94.02-2.18 91.19-4.9 91.19-9.98L91.19-9.98 91.19-14.33Q91.19-19.48 93.82-22.26 96.44-25.05 101.49-25.05L101.49-25.05Q104.89-25.05 107.17-23.79 109.44-22.53 110.59-20.2 111.74-17.88 111.74-14.65L111.74-14.65 111.74-13.75Q111.74-12.95 111.68-12.15 111.62-11.35 111.52-10.58L111.52-10.58 107.79-10.58Q107.84-11.78 107.85-12.85 107.87-13.93 107.87-14.83L107.87-14.83Q107.87-17.05 107.16-18.59 106.44-20.13 105.03-20.94 103.62-21.75 101.49-21.75L101.49-21.75Q98.34-21.75 96.77-19.93 95.19-18.1 95.19-14.7L95.19-14.7 95.19-12.38 95.22-11.88 95.22-9.55Q95.22-8.03 95.67-6.8 96.12-5.58 97.08-4.69 98.04-3.8 99.53-3.34 101.02-2.88 103.07-2.88L103.07-2.88Q105.44-2.88 107.49-3.5 109.54-4.13 111.34-5.2L111.34-5.2 110.97-1.7Q109.34-0.68 107.19-0.06 105.04 0.55 102.42 0.55ZM110.67-10.58L93.32-10.58 93.32-13.63 110.67-13.63 110.67-10.58ZM120.99-14.93L120.99-14.93 120.06-18.05 121.06-18.1Q121.87-21.2 123.81-22.99 125.77-24.78 128.99-24.78L128.99-24.78Q129.79-24.78 130.43-24.65 131.06-24.53 131.56-24.35L131.56-24.35 131.81-20.43Q131.19-20.63 130.43-20.75 129.66-20.88 128.74-20.88L128.74-20.88Q125.99-20.88 123.95-19.35 121.92-17.82 120.99-14.93ZM121.19 0L117.14 0 117.14-24.4 121.09-24.4 120.89-17.2 121.19-16.9 121.19 0ZM135.49-24.4L139.51-24.4 139.51-9.22Q139.51-7.3 140.05-5.86 140.59-4.42 141.81-3.64 143.04-2.85 145.11-2.85L145.11-2.85Q147.06-2.85 148.46-3.56 149.86-4.28 150.75-5.53 151.64-6.78 151.96-8.35L151.96-8.35 152.69-5.48 151.81-5.48Q151.44-3.83 150.44-2.46 149.44-1.1 147.75-0.29 146.06 0.53 143.59 0.53L143.59 0.53Q140.71 0.53 138.93-0.56 137.14-1.65 136.31-3.74 135.49-5.83 135.49-8.78L135.49-8.78 135.49-24.4ZM151.79-24.4L155.84-24.4 155.84 0 151.79 0 151.96-5.85 151.79-6.1 151.79-24.4ZM174.46 0.53L174.46 0.53Q172.21 0.53 170.56-0.23 168.91-0.98 167.89-2.38 166.86-3.78 166.51-5.63L166.51-5.63 165.19-5.63 166.36-9.43Q166.46-7.23 167.35-5.76 168.24-4.3 169.76-3.58 171.29-2.85 173.21-2.85L173.21-2.85Q176.29-2.85 177.92-4.65 179.56-6.45 179.56-9.93L179.56-9.93 179.56-14.6Q179.56-18.05 177.94-19.85 176.31-21.65 173.21-21.65L173.21-21.65Q171.36-21.65 169.94-20.93 168.51-20.2 167.57-18.95 166.64-17.7 166.29-16.1L166.29-16.1 165.29-18.93 166.46-18.93Q166.86-20.6 167.82-21.96 168.79-23.33 170.47-24.14 172.16-24.95 174.64-24.95L174.64-24.95Q179.04-24.95 181.34-22.21 183.64-19.48 183.64-14.28L183.64-14.28 183.64-10.23Q183.64-4.98 181.32-2.23 179.01 0.53 174.46 0.53ZM166.46 8.6L162.44 8.6 162.44-24.4 166.49-24.4 166.31-18.53 166.36-17.28 166.36-7 166.34-6.18 166.46 0.68 166.46 8.6Z" opacity="1" transform="matrix(1,0,0,1,0,0)" fill="#000000" class="wordmark-text-0" data-fill-palette-color="quaternary" id="text-0"></path></svg></g></svg></g><g transform="matrix(1,0,0,1,0,49.16053852981855)"><svg viewBox="0 0 213.1584412271571 24.57875794969554" height="24.57875794969554" width="213.1584412271571"><g transform="matrix(1,0,0,1,0,0)"><svg width="213.1584412271571" viewBox="3.25 -35.1 412.81 47.60000000000001" height="24.57875794969554" data-palette-color="#ffffff"><path d="M24.85-24.95L24.6-31.3Q22.05-32.3 19.25-32.3L19.25-32.3Q13.6-32.3 10.13-28.15 6.65-24 6.65-16 6.65-8 10.3-4.8L10.3-4.8Q12.8-2.55 17.25-2.55L17.25-2.55Q20.1-2.55 22.98-3.2 25.85-3.85 26.9-4.45L26.9-4.45 27.6-2Q25.4-0.55 19.9 0L19.9 0Q18.3 0.2 16.53 0.2 14.75 0.2 12.35-0.38 9.95-0.95 7.9-2.7L7.9-2.7Q3.25-6.65 3.25-15.85 3.25-25.05 7.63-30.08 12-35.1 19-35.1L19-35.1Q22.9-35.1 25.7-33.55L25.7-33.55Q26.75-33 27.35-32.35L27.35-32.35 27.35-25.1 24.85-24.95ZM61.36-6.4L61.36-6.4Q60.46-8.8 60.46-12L60.46-12Q60.46-18.15 63.91-21.68 67.36-25.2 72.56-25.2L72.56-25.2Q80.71-25.2 83.26-18.6L83.26-18.6Q84.21-16.2 84.21-13L84.21-13Q84.21-6.85 80.76-3.33 77.31 0.2 72.11 0.2L72.11 0.2Q63.96 0.2 61.36-6.4ZM63.71-12.35Q63.71-7.75 66.08-5.23 68.46-2.7 72.21-2.7 75.96-2.7 78.46-5.38 80.96-8.05 80.96-12.65 80.96-17.25 78.61-19.78 76.26-22.3 72.48-22.3 68.71-22.3 66.21-19.63 63.71-16.95 63.71-12.35ZM128.27-22.25L128.27-22.25Q125.47-22.1 122.22-20.4L122.22-20.4 122.22 0 118.97 0 118.97-25 122.22-25.25 122.22-22.45Q125.57-25 128.72-25.15L128.72-25.15Q134.02-25.15 136.02-22.5L136.02-22.5Q139.82-25 143.37-25.15L143.37-25.15Q146.42-25.15 148.07-24.4 149.72-23.65 150.79-22.28 151.87-20.9 151.87-18.4L151.87-18.4 151.87 0 148.62 0 148.62-17.55Q148.62-19.4 147.77-20.4L147.77-20.4Q146.22-22.25 143.37-22.25L143.37-22.25Q140.37-22.25 136.97-20.45L136.97-20.45Q137.22-19.45 137.22-18.4L137.22-18.4 137.22 0 133.97 0 133.97-17.55Q133.97-19.4 133.17-20.4L133.17-20.4Q131.57-22.25 128.27-22.25ZM205.88-3.5Q204.23-1.85 202.2-1.03 200.18-0.2 198.73-0.1 197.28 0 195.88 0 194.48 0 192.83-0.25L192.83-0.25 192.83 12.25 189.58 12.5 189.58-23.7Q190.68-24.05 192.95-24.75 195.23-25.45 197.8-25.45 200.38-25.45 202.25-25.03 204.13-24.6 205.73-23.4L205.73-23.4Q209.48-20.5 209.48-13.8 209.48-7.1 205.88-3.5L205.88-3.5ZM192.83-21.7L192.83-2.8Q194.33-2.45 196.03-2.45L196.03-2.45Q200.93-2.45 203.58-5.35 206.23-8.25 206.23-13.5 206.23-18.75 203.53-21L203.53-21Q201.63-22.55 198.65-22.55 195.68-22.55 192.83-21.7L192.83-21.7ZM250.93-3.2L250.93-3.2Q252.03-2.8 254.43-2.8 256.83-2.8 260.63-4.75L260.63-4.75 260.63-25 263.88-25.25 263.88 0 260.63 0 260.63-2.7Q256.93 0.15 253.08 0.15L253.08 0.15Q248.28 0.15 246.13-2.7L246.13-2.7Q245.03-4.1 245.03-6.6L245.03-6.6 245.03-25 248.28-25.25 248.28-7.45Q248.28-4.35 250.93-3.2ZM311.44-3.6L312.04-0.9Q311.14 0 308.79 0L308.79 0Q305.49 0 304.34-1.7L304.34-1.7Q302.39-3.55 302.39-6.7L302.39-6.7 302.39-22.1 299.59-22.1 300.04-25 302.39-25 302.39-29.95 305.64-30.25 305.64-25 311.44-25 311.44-22.1 305.64-22.1 305.64-5.9Q305.64-3 308.64-3L308.64-3Q309.94-3 311.44-3.6L311.44-3.6ZM348.7-12.3L348.7-11.5Q348.7-2.7 357.1-2.7L357.1-2.7Q360.65-2.7 363.6-3.65L363.6-3.65Q364.35-3.9 364.65-4.05L364.65-4.05 365.4-1.4Q363.65-0.35 359.05 0.1L359.05 0.1Q357.75 0.2 356.3 0.2L356.3 0.2Q352.1 0.2 349.3-1.9L349.3-1.9Q345.45-4.75 345.45-11.4 345.45-18.05 348.93-21.63 352.4-25.2 357.35-25.2 362.3-25.2 364.8-22L364.8-22Q366.7-19.45 366.7-15.25L366.7-15.25Q366.7-14.25 366.6-13.15L366.6-13.15 348.75-13.15Q348.7-12.75 348.7-12.3L348.7-12.3ZM357.55-22.1L357.55-22.1Q354.45-22.1 352.25-20.23 350.05-18.35 349.2-15.4L349.2-15.4 363.75-15.4Q363.5-20.95 359.45-21.85L359.45-21.85Q358.55-22.1 357.55-22.1ZM416.06-24.5L414.76-21.5Q413.96-21.95 413.06-21.95 412.16-21.95 412.06-21.9L412.06-21.9Q410.16-21.9 408.23-20.53 406.31-19.15 404.96-17.45L404.96-17.45 404.96 0 401.71 0 401.71-25 404.96-25.25 404.96-19.65Q406.81-22 408.11-22.95L408.11-22.95Q410.51-24.75 412.71-24.85L412.71-24.85Q413.01-24.9 413.81-24.9 414.61-24.9 416.06-24.5L416.06-24.5Z" opacity="1" transform="matrix(1,0,0,1,0,0)" fill="#000000" class="slogan-text-1" data-fill-palette-color="quaternary" id="text-1"></path></svg></g></svg></g></svg></g></svg></g><g transform="matrix(1,0,0,1,62.71019297314152,0)"><svg viewBox="0 0 87.73805528087408 101.90770773468849" height="101.90770773468849" width="87.73805528087408"><g><svg xmlns="http://www.w3.org/2000/svg" xmlns:xlink="http://www.w3.org/1999/xlink" version="1.1" x="0" y="0" viewBox="7.699 0 85.89500005236009 99.767" enable-background="new 0 0 100 100" xml:space="preserve" height="101.90770773468849" width="87.73805528087408" class="icon-icon-0" data-fill-palette-color="quaternary" id="icon-0"><g fill="#ffffff" data-fill-palette-color="quaternary"><path fill="#000000" d="M60.147 14.945V26.74c12.766 4.042 22.045 15.997 22.045 30.082 0 17.395-14.149 31.544-31.546 31.544-17.394 0-31.545-14.149-31.545-31.544 0-14.085 9.279-26.04 22.043-30.082V14.945C22.022 19.283 7.699 36.405 7.699 56.821c0 23.681 19.267 42.946 42.947 42.946 23.682 0 42.948-19.266 42.948-42.946C93.595 36.405 79.272 19.283 60.147 14.945z" data-fill-palette-color="quaternary"></path><path fill="#000000" d="M50.646 62.521c3.149 0 5.702-2.554 5.702-5.7V5.701C56.349 2.553 53.796 0 50.646 0c-3.148 0-5.701 2.553-5.701 5.701v51.12C44.946 59.968 47.499 62.521 50.646 62.521z" data-fill-palette-color="quaternary"></path></g></svg></g></svg></g><g></g></svg></g></svg></g></svg></g></svg></g><defs></defs></svg><rect width="342.85155851775386" height="342.85155851775386" fill="none" stroke="none" visibility="hidden"></rect></g></svg></g></svg>